# Blender v2.90.1 OBJ File: ''
# www.blender.org
mtllib Mouse.mtl
o Cube
v 1.013551 0.571334 0.095038
v 1.016526 0.007482 -0.060104
v 1.002252 0.830004 0.803870
v 1.008317 0.066012 0.581103
v 0.738894 0.554526 0.110084
v 1.013256 -0.087822 0.037968
v 0.715284 0.837860 0.806598
v 0.726786 0.077703 0.595090
v 1.004450 0.979331 1.000966
v 0.991505 1.002074 1.038835
v 0.719633 -0.029109 0.537329
v 1.011448 0.276356 0.390512
v 1.014719 0.371660 0.292440
v 0.737187 0.380119 0.281918
v 0.732173 0.285102 0.380406
v 0.738994 0.015941 -0.070626
v 0.733981 -0.079076 0.027862
v 1.016896 -0.066891 -0.132101
v 1.013625 -0.162195 -0.034029
v 0.739364 -0.058432 -0.142623
v 0.734350 -0.153449 -0.044135
vt 0.625000 0.500000
vt 0.875000 0.500000
vt 0.875000 0.750000
vt 0.625000 0.750000
vt 0.375000 0.750000
vt 0.625000 1.000000
vt 0.375000 1.000000
vt 0.424028 0.250000
vt 0.421883 0.500000
vt 0.421883 0.500000
vt 0.424028 0.250000
vt 0.375000 0.000000
vt 0.625000 0.000000
vt 0.625000 0.250000
vt 0.424028 0.250000
vt 0.375000 0.207186
vt 0.125000 0.542814
vt 0.375000 0.543726
vt 0.125000 0.750000
vt 0.421883 0.500000
vt 0.125000 0.542814
vt 0.375000 0.543726
vt 0.375000 0.207186
vt 0.375000 0.543726
vt 0.125000 0.542814
vt 0.125000 0.500000
vt 0.375000 0.500000
vt 0.375000 0.207186
vn -0.0263 0.9325 -0.3603
vn 0.0189 -0.2738 0.9616
vn 0.0484 0.6948 -0.7175
vn -0.9994 -0.0079 -0.0327
vn -0.0303 -0.6957 -0.7177
vn 0.9998 0.0064 0.0174
vn 0.0048 -0.7025 -0.7117
vn -0.0477 -0.6949 0.7176
vn -0.9993 0.0229 -0.0288
vn 0.9997 -0.0141 0.0197
vn 0.0036 -0.7185 -0.6955
usemtl Material
s off
f 1/1/1 5/2/1 7/3/1 3/4/1
f 4/5/2 3/4/2 7/6/2 8/7/2
f 16/8/3 2/9/3 18/10/3 20/11/3
f 8/12/4 7/13/4 5/14/4 14/15/4 15/16/4
f 15/17/5 12/18/5 4/5/5 8/19/5
f 12/18/6 13/20/6 1/1/6 3/4/6 4/5/6
f 14/15/3 13/20/3 2/9/3 16/8/3
f 14/15/7 5/14/7 1/1/7 13/20/7
f 12/18/8 15/17/8 17/21/8 6/22/8
f 15/16/9 14/15/9 16/8/9 17/23/9
f 13/20/10 12/18/10 6/22/10 2/9/10
f 19/24/11 21/25/11 20/26/11 18/27/11
f 6/22/8 17/21/8 21/25/8 19/24/8
f 17/23/9 16/8/9 20/11/9 21/28/9
f 2/9/10 6/22/10 19/24/10 18/10/10
l 3 9
l 3 10
